
<global>
amp_veltrack=0
ampeg_attack=0.03
ampeg_release=0.45
</global>

<group>
group_label=PP
xf_cccurve=gain
xfin_hicc1=42
xfout_hicc1=85
xfout_locc1=42

<region>
hikey=g6
hivel=127
lokey=f#6
loop_end=306889
loop_mode=loop_continuous
loop_start=76372
loop_xfade=22900
lovel=0
offset=14594
pitch_keycenter=g6
sample=Violins1_sul_tasto_PP_G6.opus
</region>

<region>
hikey=g5
hivel=127
lokey=f#5
loop_end=306888
loop_mode=loop_continuous
loop_start=76372
loop_xfade=22900
lovel=0
offset=14926
pitch_keycenter=g5
sample=Violins1_sul_tasto_PP_G5.opus
</region>

<region>
hikey=g4
hivel=127
lokey=f#4
loop_end=306215
loop_mode=loop_continuous
loop_start=76205
loop_xfade=22849
lovel=0
offset=14267
pitch_keycenter=g4
sample=Violins1_sul_tasto_PP_G4.opus
</region>

<region>
hivel=127
key=g3
loop_end=283651
loop_mode=loop_continuous
loop_start=70589
loop_xfade=21166
lovel=0
offset=6388
sample=Violins1_sul_tasto_PP_G3.opus
</region>

<region>
hikey=f6
hivel=127
lokey=e6
loop_end=306889
loop_mode=loop_continuous
loop_start=76372
loop_xfade=22900
lovel=0
offset=13978
pitch_keycenter=f6
sample=Violins1_sul_tasto_PP_F6.opus
</region>

<region>
hikey=f5
hivel=127
lokey=e5
loop_end=306888
loop_mode=loop_continuous
loop_start=76372
loop_xfade=22900
lovel=0
offset=13360
pitch_keycenter=f5
sample=Violins1_sul_tasto_PP_F5.opus
</region>

<region>
hikey=f4
hivel=127
lokey=e4
loop_end=306888
loop_mode=loop_continuous
loop_start=76372
loop_xfade=22900
lovel=0
offset=18871
pitch_keycenter=f4
sample=Violins1_sul_tasto_PP_F4.opus
</region>

<region>
hikey=d#6
hivel=127
lokey=d6
loop_end=306889
loop_mode=loop_continuous
loop_start=76372
loop_xfade=22900
lovel=0
offset=12047
pitch_keycenter=d#6
sample=Violins1_sul_tasto_PP_D#6.opus
</region>

<region>
hikey=d#5
hivel=127
lokey=d5
loop_end=306888
loop_mode=loop_continuous
loop_start=76372
loop_xfade=22900
lovel=0
offset=15309
pitch_keycenter=d#5
sample=Violins1_sul_tasto_PP_D#5.opus
</region>

<region>
hikey=d#4
hivel=127
lokey=d4
loop_end=305898
loop_mode=loop_continuous
loop_start=76126
loop_xfade=22826
lovel=0
offset=14536
pitch_keycenter=d#4
sample=Violins1_sul_tasto_PP_D#4.opus
</region>

<region>
hikey=c#6
hivel=127
lokey=c6
loop_end=304240
loop_mode=loop_continuous
loop_start=75713
loop_xfade=22702
lovel=0
offset=11246
pitch_keycenter=c#6
sample=Violins1_sul_tasto_PP_C#6.opus
</region>

<region>
hikey=c#5
hivel=127
lokey=c5
loop_end=302989
loop_mode=loop_continuous
loop_start=75402
loop_xfade=22609
lovel=0
offset=15218
pitch_keycenter=c#5
sample=Violins1_sul_tasto_PP_C#5.opus
</region>

<region>
hikey=c#4
hivel=127
lokey=c4
loop_end=293243
loop_mode=loop_continuous
loop_start=72976
loop_xfade=21881
lovel=0
pitch_keycenter=c#4
sample=Violins1_sul_tasto_PP_C#4.opus
</region>

<region>
hikey=E7
hivel=127
lokey=a#6
loop_end=306889
loop_mode=loop_continuous
loop_start=76372
loop_xfade=22900
lovel=0
offset=12849
pitch_keycenter=B6
sample=Violins1_sul_tasto_PP_B6.opus
</region>

<region>
hikey=b5
hivel=127
lokey=a#5
loop_end=306888
loop_mode=loop_continuous
loop_start=76372
loop_xfade=22900
lovel=0
offset=14139
pitch_keycenter=b5
sample=Violins1_sul_tasto_PP_B5.opus
</region>

<region>
hikey=b4
hivel=127
lokey=a#4
loop_end=306888
loop_mode=loop_continuous
loop_start=76372
loop_xfade=22900
lovel=0
offset=17670
pitch_keycenter=b4
sample=Violins1_sul_tasto_PP_B4.opus
</region>

<region>
hikey=b3
hivel=127
lokey=a#3
loop_end=305617
loop_mode=loop_continuous
loop_start=76056
loop_xfade=22805
lovel=0
offset=12520
pitch_keycenter=b3
sample=Violins1_sul_tasto_PP_B3.opus
</region>

<region>
hikey=a6
hivel=127
lokey=g#6
loop_end=306889
loop_mode=loop_continuous
loop_start=76372
loop_xfade=22900
lovel=0
offset=15213
pitch_keycenter=a6
sample=Violins1_sul_tasto_PP_A6.opus
</region>

<region>
hikey=a5
hivel=127
lokey=g#5
loop_end=306888
loop_mode=loop_continuous
loop_start=76372
loop_xfade=22900
lovel=0
offset=15372
pitch_keycenter=a5
sample=Violins1_sul_tasto_PP_A5.opus
</region>

<region>
hikey=a4
hivel=127
lokey=g#4
loop_end=294879
loop_mode=loop_continuous
loop_start=73384
loop_xfade=22003
lovel=0
offset=3711
pitch_keycenter=a4
sample=Violins1_sul_tasto_PP_A4.opus
</region>

<region>
hikey=a3
hivel=127
lokey=g#3
loop_end=305725
loop_mode=loop_continuous
loop_start=76083
loop_xfade=22813
lovel=0
offset=15903
pitch_keycenter=a3
sample=Violins1_sul_tasto_PP_A3.opus
</region>
</group>

<group>
group_label=MF
xf_cccurve=gain
xfin_hicc1=85
xfin_locc1=42
xfout_hicc1=127
xfout_locc1=85

<region>
hikey=g6
hivel=127
lokey=f#6
loop_end=293045
loop_mode=loop_continuous
loop_start=72927
loop_xfade=21867
lovel=0
pitch_keycenter=g6
sample=Violins1_sul_tasto_MF_G6.opus
</region>

<region>
hikey=g5
hivel=127
lokey=f#5
loop_end=287844
loop_mode=loop_continuous
loop_start=71633
loop_xfade=21479
lovel=0
pitch_keycenter=g5
sample=Violins1_sul_tasto_MF_G5.opus
</region>

<region>
hikey=g4
hivel=127
lokey=f#4
loop_end=290097
loop_mode=loop_continuous
loop_start=72193
loop_xfade=21647
lovel=0
pitch_keycenter=g4
sample=Violins1_sul_tasto_MF_G4.opus
</region>

<region>
hivel=127
key=g3
loop_end=284826
loop_mode=loop_continuous
loop_start=70882
loop_xfade=21253
lovel=0
sample=Violins1_sul_tasto_MF_G3.opus
</region>

<region>
hikey=f6
hivel=127
lokey=e6
loop_end=292247
loop_mode=loop_continuous
loop_start=72728
loop_xfade=21807
lovel=0
pitch_keycenter=f6
sample=Violins1_sul_tasto_MF_F6.opus
</region>

<region>
hikey=f5
hivel=127
lokey=e5
loop_end=297625
loop_mode=loop_continuous
loop_start=74067
loop_xfade=22208
lovel=0
pitch_keycenter=f5
sample=Violins1_sul_tasto_MF_F5.opus
</region>

<region>
hikey=f4
hivel=127
lokey=e4
loop_end=293407
loop_mode=loop_continuous
loop_start=73017
loop_xfade=21894
lovel=0
pitch_keycenter=f4
sample=Violins1_sul_tasto_MF_F4.opus
</region>

<region>
hikey=d#6
hivel=127
lokey=d6
loop_end=291412
loop_mode=loop_continuous
loop_start=72521
loop_xfade=21745
lovel=0
pitch_keycenter=d#6
sample=Violins1_sul_tasto_MF_D#6.opus
</region>

<region>
hikey=d#5
hivel=127
lokey=d5
loop_end=296711
loop_mode=loop_continuous
loop_start=73840
loop_xfade=22140
lovel=0
pitch_keycenter=d#5
sample=Violins1_sul_tasto_MF_D#5.opus
</region>

<region>
hikey=d#4
hivel=127
lokey=d4
loop_end=290534
loop_mode=loop_continuous
loop_start=72302
loop_xfade=21679
lovel=0
pitch_keycenter=d#4
sample=Violins1_sul_tasto_MF_D#4.opus
</region>

<region>
hikey=c#6
hivel=127
lokey=c6
loop_end=291601
loop_mode=loop_continuous
loop_start=72568
loop_xfade=21759
lovel=0
pitch_keycenter=c#6
sample=Violins1_sul_tasto_MF_C#6.opus
</region>

<region>
hikey=c#5
hivel=127
lokey=c5
loop_end=290138
loop_mode=loop_continuous
loop_start=72204
loop_xfade=21650
lovel=0
pitch_keycenter=c#5
sample=Violins1_sul_tasto_MF_C#5.opus
</region>

<region>
hikey=c#4
hivel=127
lokey=c4
loop_end=283574
loop_mode=loop_continuous
loop_start=70570
loop_xfade=21160
lovel=0
pitch_keycenter=c#4
sample=Violins1_sul_tasto_MF_C#4.opus
</region>

<region>
hikey=E7
hivel=127
lokey=a#6
loop_end=284191
loop_mode=loop_continuous
loop_start=70724
loop_xfade=21206
lovel=0
pitch_keycenter=B6
sample=Violins1_sul_tasto_MF_B6.opus
</region>

<region>
hikey=b5
hivel=127
lokey=a#5
loop_end=291043
loop_mode=loop_continuous
loop_start=72429
loop_xfade=21717
lovel=0
pitch_keycenter=b5
sample=Violins1_sul_tasto_MF_B5.opus
</region>

<region>
hikey=b4
hivel=127
lokey=a#4
loop_end=290021
loop_mode=loop_continuous
loop_start=72175
loop_xfade=21641
lovel=0
pitch_keycenter=b4
sample=Violins1_sul_tasto_MF_B4.opus
</region>

<region>
hikey=b3
hivel=127
lokey=a#3
loop_end=291665
loop_mode=loop_continuous
loop_start=72584
loop_xfade=21764
lovel=0
pitch_keycenter=b3
sample=Violins1_sul_tasto_MF_B3.opus
</region>

<region>
hikey=a6
hivel=127
lokey=g#6
loop_end=293754
loop_mode=loop_continuous
loop_start=73104
loop_xfade=21920
lovel=0
pitch_keycenter=a6
sample=Violins1_sul_tasto_MF_A6.opus
</region>

<region>
hikey=a5
hivel=127
lokey=g#5
loop_end=286226
loop_mode=loop_continuous
loop_start=71230
loop_xfade=21358
lovel=0
pitch_keycenter=a5
sample=Violins1_sul_tasto_MF_A5.opus
</region>

<region>
hikey=a4
hivel=127
lokey=g#4
loop_end=292256
loop_mode=loop_continuous
loop_start=72731
loop_xfade=21808
lovel=0
pitch_keycenter=a4
sample=Violins1_sul_tasto_MF_A4.opus
</region>

<region>
hikey=a3
hivel=127
lokey=g#3
loop_end=287193
loop_mode=loop_continuous
loop_start=71471
loop_xfade=21430
lovel=0
pitch_keycenter=a3
sample=Violins1_sul_tasto_MF_A3.opus
</region>
</group>

<group>
ampeg_attack=0.02
group_label=FF
xf_cccurve=gain
xfin_hicc1=127
xfin_locc1=85
xfout_hicc1=127
xfout_locc1=127

<region>
hikey=g6
hivel=127
lokey=f#6
loop_end=290688
loop_mode=loop_continuous
loop_start=72340
loop_xfade=21691
lovel=0
pitch_keycenter=g6
sample=Violins1_sul_tasto_FF_G6.opus
</region>

<region>
hikey=g5
hivel=127
lokey=f#5
loop_end=289077
loop_mode=loop_continuous
loop_start=71940
loop_xfade=21571
lovel=0
pitch_keycenter=g5
sample=Violins1_sul_tasto_FF_G5.opus
</region>

<region>
hikey=g4
hivel=127
lokey=f#4
loop_end=296175
loop_mode=loop_continuous
loop_start=73706
loop_xfade=22100
lovel=0
pitch_keycenter=g4
sample=Violins1_sul_tasto_FF_G4.opus
</region>

<region>
hivel=127
key=g3
loop_end=291537
loop_mode=loop_continuous
loop_start=72552
loop_xfade=21754
lovel=0
sample=Violins1_sul_tasto_FF_G3.opus
</region>

<region>
hikey=f6
hivel=127
lokey=e6
loop_end=286609
loop_mode=loop_continuous
loop_start=71325
loop_xfade=21386
lovel=0
pitch_keycenter=f6
sample=Violins1_sul_tasto_FF_F6.opus
</region>

<region>
hikey=f5
hivel=127
lokey=e5
loop_end=283776
loop_mode=loop_continuous
loop_start=70620
loop_xfade=21175
lovel=0
pitch_keycenter=f5
sample=Violins1_sul_tasto_FF_F5.opus
</region>

<region>
hikey=f4
hivel=127
lokey=e4
loop_end=292493
loop_mode=loop_continuous
loop_start=72790
loop_xfade=21825
lovel=0
pitch_keycenter=f4
sample=Violins1_sul_tasto_FF_F4.opus
</region>

<region>
hikey=d#6
hivel=127
lokey=d6
loop_end=295332
loop_mode=loop_continuous
loop_start=73496
loop_xfade=22037
lovel=0
pitch_keycenter=d#6
sample=Violins1_sul_tasto_FF_D#6.opus
</region>

<region>
hikey=d#5
hivel=127
lokey=d5
loop_end=288914
loop_mode=loop_continuous
loop_start=71899
loop_xfade=21558
lovel=0
pitch_keycenter=d#5
sample=Violins1_sul_tasto_FF_D#5.opus
</region>

<region>
hikey=d#4
hivel=127
lokey=d4
loop_end=291765
loop_mode=loop_continuous
loop_start=72608
loop_xfade=21771
lovel=0
pitch_keycenter=d#4
sample=Violins1_sul_tasto_FF_D#4.opus
</region>

<region>
hikey=c#6
hivel=127
lokey=c6
loop_end=296314
loop_mode=loop_continuous
loop_start=73741
loop_xfade=22111
lovel=0
pitch_keycenter=c#6
sample=Violins1_sul_tasto_FF_C#6.opus
</region>

<region>
hikey=c#5
hivel=127
lokey=c5
loop_end=292228
loop_mode=loop_continuous
loop_start=72724
loop_xfade=21806
lovel=0
pitch_keycenter=c#5
sample=Violins1_sul_tasto_FF_C#5.opus
</region>

<region>
hikey=c#4
hivel=127
lokey=c4
loop_end=290135
loop_mode=loop_continuous
loop_start=72203
loop_xfade=21649
lovel=0
pitch_keycenter=c#4
sample=Violins1_sul_tasto_FF_C#4.opus
</region>

<region>
hikey=E7
hivel=127
lokey=a#6
loop_end=292877
loop_mode=loop_continuous
loop_start=72885
loop_xfade=21854
lovel=0
pitch_keycenter=B6
sample=Violins1_sul_tasto_FF_B6.opus
</region>

<region>
hikey=b5
hivel=127
lokey=a#5
loop_end=282257
loop_mode=loop_continuous
loop_start=70242
loop_xfade=21062
lovel=0
pitch_keycenter=b5
sample=Violins1_sul_tasto_FF_B5.opus
</region>

<region>
hikey=b4
hivel=127
lokey=a#4
loop_end=296536
loop_mode=loop_continuous
loop_start=73796
loop_xfade=22127
lovel=0
pitch_keycenter=b4
sample=Violins1_sul_tasto_FF_B4.opus
</region>

<region>
hikey=b3
hivel=127
lokey=a#3
loop_end=285185
loop_mode=loop_continuous
loop_start=70971
loop_xfade=21280
lovel=0
pitch_keycenter=b3
sample=Violins1_sul_tasto_FF_B3.opus
</region>

<region>
hikey=a6
hivel=127
lokey=g#6
loop_end=291996
loop_mode=loop_continuous
loop_start=72666
loop_xfade=21788
lovel=0
pitch_keycenter=a6
sample=Violins1_sul_tasto_FF_A6.opus
</region>

<region>
hikey=a5
hivel=127
lokey=g#5
loop_end=292244
loop_mode=loop_continuous
loop_start=72728
loop_xfade=21807
lovel=0
pitch_keycenter=a5
sample=Violins1_sul_tasto_FF_A5.opus
</region>

<region>
hikey=a4
hivel=127
lokey=g#4
loop_end=289621
loop_mode=loop_continuous
loop_start=72075
loop_xfade=21611
lovel=0
pitch_keycenter=a4
sample=Violins1_sul_tasto_FF_A4.opus
</region>

<region>
hikey=a3
hivel=127
lokey=g#3
loop_end=290725
loop_mode=loop_continuous
loop_start=72350
loop_xfade=21693
lovel=0
pitch_keycenter=a3
sample=Violins1_sul_tasto_FF_A3.opus
</region>
</group>